<svg width="40" height="40" viewBox="0 0 40 40" fill="none" xmlns="http://www.w3.org/2000/svg">
<rect width="40" height="40" rx="6" fill="#28A745" fill-opacity="0.1"/>
<path d="M13.5983 26.4017C12.5 25.3033 12.5 23.5355 12.5 20C12.5 16.4645 12.5 14.6967 13.5983 13.5983C14.6967 12.5 16.4645 12.5 20 12.5C23.5355 12.5 25.3033 12.5 26.4017 13.5983C27.5 14.6967 27.5 16.4645 27.5 20C27.5 23.5355 27.5 25.3033 26.4017 26.4017C25.3033 27.5 23.5355 27.5 20 27.5C16.4645 27.5 14.6967 27.5 13.5983 26.4017Z" stroke="#28A745" strokeWidth="1.5" strokeLinecap="round" strokeLinejoin="round"/>
<path d="M15.8359 21.6654L18.1633 19.3379C18.4888 19.0125 19.0164 19.0125 19.3419 19.3379L20.6634 20.6594C20.9888 20.9849 21.5164 20.9849 21.8419 20.6594L24.1693 18.332" stroke="#28A745" strokeWidth="1.5" strokeLinecap="round" strokeLinejoin="round"/>
</svg>
