<svg width="41" height="40" viewBox="0 0 41 40" fill="none" xmlns="http://www.w3.org/2000/svg">
<rect x="0.5" width="40" height="40" rx="5.71429" fill="#6F42C1" fill-opacity="0.1"/>
<path d="M23.4607 28.125H17.5399C15.7024 28.125 14.6899 27.1183 14.6899 25.2917C14.6899 23.2883 15.8233 20.9492 19.0191 20.9492H21.9815C25.1774 20.9492 26.3108 23.2883 26.3108 25.2917C26.3108 27.1183 25.2982 28.125 23.4607 28.125ZM19.0191 22.1992C16.1616 22.1992 15.9399 24.5658 15.9399 25.2917C15.9399 26.4167 16.4041 26.875 17.5399 26.875H23.4607C24.5966 26.875 25.0608 26.4158 25.0608 25.2917C25.0608 24.5658 24.8382 22.1992 21.9815 22.1992H19.0191ZM20.5066 19.8017C18.7808 19.8017 17.3765 18.3975 17.3765 16.6717C17.3765 14.9458 18.7808 13.5417 20.5066 13.5417C22.2325 13.5417 23.6374 14.9458 23.6374 16.6717C23.6374 18.3975 22.2325 19.8017 20.5066 19.8017ZM20.5066 14.7917C19.47 14.7917 18.6265 15.635 18.6265 16.6717C18.6265 17.7083 19.47 18.5517 20.5066 18.5517C21.5433 18.5517 22.3874 17.7083 22.3874 16.6717C22.3874 15.635 21.5433 14.7917 20.5066 14.7917ZM29.4583 20.5417C29.4583 18.895 28.4375 17.2334 26.1583 17.2334H25.3499C25.0049 17.2334 24.7249 17.5134 24.7249 17.8584C24.7249 18.2034 25.0049 18.4834 25.3499 18.4834H26.1583C28.0091 18.4834 28.2083 19.9225 28.2083 20.5417C28.2083 21.2617 27.9507 21.5166 27.2249 21.5166H26.9249C26.5799 21.5166 26.2999 21.7966 26.2999 22.1416C26.2999 22.4866 26.5799 22.7666 26.9249 22.7666H27.2249C28.644 22.7666 29.4583 21.9559 29.4583 20.5417ZM25.5824 16.6959C26.7083 16.4692 27.525 15.4642 27.525 14.3084C27.525 12.9667 26.4333 11.875 25.0916 11.875C24.4574 11.875 23.8674 12.11 23.4307 12.5358C23.1832 12.7767 23.1783 13.1725 23.4191 13.42C23.6591 13.6675 24.0566 13.6726 24.3032 13.4317C24.5057 13.2342 24.7858 13.1258 25.0916 13.1258C25.7441 13.1258 26.275 13.6567 26.275 14.3092C26.275 14.8725 25.8791 15.3617 25.3349 15.4717C24.9966 15.5401 24.7774 15.87 24.8457 16.2083C24.9057 16.505 25.1666 16.71 25.4574 16.71C25.4991 16.7084 25.5408 16.7042 25.5824 16.6959ZM14.6916 22.1416C14.6916 21.7966 14.4116 21.5166 14.0666 21.5166H13.774C13.0482 21.5166 12.7908 21.2617 12.7908 20.5417C12.7908 19.9225 12.9899 18.4834 14.8407 18.4834H15.6657C16.0107 18.4834 16.2907 18.2034 16.2907 17.8584C16.2907 17.5134 16.0107 17.2334 15.6657 17.2334H14.8407C12.4049 17.2334 11.5408 19.0159 11.5408 20.5417C11.5408 21.9559 12.3549 22.7666 13.774 22.7666H14.0666C14.4116 22.7666 14.6916 22.4866 14.6916 22.1416ZM16.1716 16.2067C16.2399 15.8684 16.0207 15.5383 15.6824 15.47C15.1324 15.3592 14.7332 14.8708 14.7332 14.3075C14.7332 13.655 15.2683 13.1242 15.9249 13.1242C16.2249 13.1242 16.5074 13.235 16.7215 13.4367C16.9724 13.6742 17.3674 13.6625 17.6049 13.4117C17.8424 13.1608 17.8307 12.7651 17.5799 12.5284C17.1341 12.1067 16.5466 11.8742 15.9257 11.8742C14.5799 11.8742 13.4841 12.9658 13.4841 14.3075C13.4841 15.4625 14.3049 16.4667 15.4357 16.6951C15.4774 16.7034 15.5191 16.7075 15.5599 16.7075C15.8508 16.7083 16.1108 16.5034 16.1716 16.2067Z" fill="#6F42C1"/>
</svg>
