<svg width="40" height="40" viewBox="0 0 40 40" fill="none" xmlns="http://www.w3.org/2000/svg">
<rect width="40" height="40" rx="5.71429" fill="#F4F1FF"/>
<path d="M24.1665 23.025C24.1665 21.3559 23.034 19.9034 21.409 19.4909L18.9957 18.8925C18.5615 18.7825 18.1882 18.5391 17.9115 18.1833C17.6457 17.8475 17.499 17.4183 17.499 16.975C17.499 15.8858 18.3849 15 19.474 15H20.524C21.5307 15 22.3749 15.7567 22.4874 16.7601C22.539 17.2176 22.9524 17.5484 23.4082 17.495C23.8657 17.4434 24.1949 17.0309 24.1432 16.5742C23.9465 14.8201 22.529 13.4908 20.7982 13.36V12.5C20.7982 12.0417 20.4232 11.6667 19.9649 11.6667C19.5065 11.6667 19.1315 12.0417 19.1315 12.5V13.3683C17.2857 13.5433 15.8315 15.0842 15.8315 16.9758C15.8315 17.7917 16.1057 18.5883 16.5982 19.2116C17.0924 19.8491 17.7982 20.3092 18.589 20.5101L21.0024 21.1083C21.8832 21.3317 22.4982 22.12 22.4982 23.0258C22.4982 23.55 22.2915 24.045 21.9165 24.42C21.5424 24.795 21.0474 25.0008 20.5232 25.0008H19.4732C18.4665 25.0008 17.6224 24.2442 17.5099 23.2409C17.4582 22.7834 17.0424 22.4542 16.589 22.5058C16.1315 22.5575 15.8024 22.9701 15.854 23.4267C16.0482 25.1584 17.4324 26.4742 19.1324 26.6351V27.5C19.1324 27.9584 19.5074 28.3334 19.9657 28.3334C20.424 28.3334 20.799 27.9584 20.799 27.5V26.64C21.6649 26.5742 22.474 26.2209 23.0965 25.5984C23.7865 24.9084 24.1665 23.995 24.1665 23.025Z" fill="#B081FF"/>
</svg>
