<svg width="41" height="40" viewBox="0 0 41 40" fill="none" xmlns="http://www.w3.org/2000/svg">
<rect x="0.5" width="40" height="40" rx="5.71429" fill="#20C997" fill-opacity="0.1"/>
<path d="M19.0584 27.5C19.0584 28.075 18.5917 28.5417 18.0167 28.5417C17.4425 28.5417 16.9708 28.075 16.9708 27.5C16.9708 26.925 17.4333 26.4583 18.0083 26.4583H18.0167C18.5917 26.4583 19.0584 26.925 19.0584 27.5ZM24.6834 26.4583H24.675C24.1 26.4583 23.6375 26.925 23.6375 27.5C23.6375 28.075 24.1083 28.5417 24.6834 28.5417C25.2584 28.5417 25.725 28.075 25.725 27.5C25.725 26.925 25.2584 26.4583 24.6834 26.4583ZM28.5875 17.0767L27.7425 22.215C27.5234 23.42 26.9783 24.7917 24.6667 24.7917H17.7783C16.6458 24.7917 15.67 23.9459 15.51 22.8242L14.2516 14.02C14.1783 13.51 13.7358 13.1259 13.2208 13.1259H13C12.655 13.1259 12.375 12.8459 12.375 12.5009C12.375 12.1559 12.655 11.8759 13 11.8759H13.2217C14.3542 11.8759 15.33 12.7217 15.49 13.8433L15.5666 14.3759H26.3333C27.015 14.3759 27.6567 14.6758 28.0934 15.1992C28.5292 15.7217 28.71 16.4067 28.5875 17.0767ZM26.5108 22.0025L26.6 21.4583H21.3333C20.9883 21.4583 20.7083 21.1783 20.7083 20.8333C20.7083 20.4883 20.9883 20.2083 21.3333 20.2083H26.8058L27.3559 16.8633C27.4134 16.5483 27.3317 16.2367 27.1325 15.9992C26.9333 15.7617 26.6425 15.625 26.3325 15.625H15.7441L16.7475 22.6475C16.8208 23.1575 17.2633 23.5417 17.7783 23.5417H24.6667C25.9975 23.5417 26.3217 23.045 26.5108 22.0025Z" fill="#20C997"/>
</svg>
